<mxfile host="app.diagrams.net" modified="2022-01-24T09:48:39.039Z" agent="5.0 (Windows NT 10.0; Win64; x64) AppleWebKit/537.36 (KHTML, like Gecko) Chrome/97.0.4692.99 Safari/537.36" etag="lzvGeKW50oK7aTYchI29" version="16.2.4" type="github">
  <diagram id="AMjBwCmGvoG6Ac3YdRjd" name="Page-1">
    <mxGraphModel dx="2070" dy="997" grid="1" gridSize="10" guides="1" tooltips="1" connect="1" arrows="1" fold="1" page="1" pageScale="1" pageWidth="827" pageHeight="1169" math="0" shadow="0">
      <root>
        <mxCell id="0" />
        <mxCell id="1" parent="0" />
        <mxCell id="Y4qEVJC5LAISTtddAkst-14" value="隐私计算" style="ellipse;whiteSpace=wrap;html=1;align=center;newEdgeStyle={&quot;edgeStyle&quot;:&quot;entityRelationEdgeStyle&quot;,&quot;startArrow&quot;:&quot;none&quot;,&quot;endArrow&quot;:&quot;none&quot;,&quot;segment&quot;:10,&quot;curved&quot;:1};treeFolding=1;treeMoving=1;" vertex="1" parent="1">
          <mxGeometry x="360" y="400" width="100" height="40" as="geometry" />
        </mxCell>
        <mxCell id="Y4qEVJC5LAISTtddAkst-15" value="面临问题" style="whiteSpace=wrap;html=1;rounded=1;arcSize=50;align=center;verticalAlign=middle;strokeWidth=1;autosize=1;spacing=4;treeFolding=1;treeMoving=1;newEdgeStyle={&quot;edgeStyle&quot;:&quot;entityRelationEdgeStyle&quot;,&quot;startArrow&quot;:&quot;none&quot;,&quot;endArrow&quot;:&quot;none&quot;,&quot;segment&quot;:10,&quot;curved&quot;:1};" vertex="1" parent="1">
          <mxGeometry x="580" y="200" width="90" height="30" as="geometry" />
        </mxCell>
        <mxCell id="Y4qEVJC5LAISTtddAkst-16" value="" style="edgeStyle=entityRelationEdgeStyle;startArrow=none;endArrow=none;segment=10;curved=1;rounded=0;exitX=0.7;exitY=0;exitDx=0;exitDy=0;exitPerimeter=0;" edge="1" target="Y4qEVJC5LAISTtddAkst-15" parent="1" source="Y4qEVJC5LAISTtddAkst-14">
          <mxGeometry relative="1" as="geometry">
            <mxPoint x="430" y="310" as="sourcePoint" />
          </mxGeometry>
        </mxCell>
        <mxCell id="Y4qEVJC5LAISTtddAkst-20" value="技术路线" style="whiteSpace=wrap;html=1;rounded=1;arcSize=50;align=center;verticalAlign=middle;strokeWidth=1;autosize=1;spacing=4;treeFolding=1;treeMoving=1;newEdgeStyle={&quot;edgeStyle&quot;:&quot;entityRelationEdgeStyle&quot;,&quot;startArrow&quot;:&quot;none&quot;,&quot;endArrow&quot;:&quot;none&quot;,&quot;segment&quot;:10,&quot;curved&quot;:1};" vertex="1" parent="1">
          <mxGeometry x="561" y="557" width="90" height="30" as="geometry" />
        </mxCell>
        <mxCell id="Y4qEVJC5LAISTtddAkst-21" value="" style="edgeStyle=entityRelationEdgeStyle;startArrow=none;endArrow=none;segment=10;curved=1;rounded=0;exitX=0.715;exitY=0.955;exitDx=0;exitDy=0;exitPerimeter=0;" edge="1" target="Y4qEVJC5LAISTtddAkst-20" parent="1" source="Y4qEVJC5LAISTtddAkst-14">
          <mxGeometry relative="1" as="geometry">
            <mxPoint x="810" y="490" as="sourcePoint" />
          </mxGeometry>
        </mxCell>
      </root>
    </mxGraphModel>
  </diagram>
</mxfile>
